<svg width="192" height="192" viewBox="0 0 192 192" fill="none" xmlns="http://www.w3.org/2000/svg">
<rect width="192" height="192" fill="url(#paint0_linear_147_5626)"/>
<path d="M55.9407 121.413C51.8752 121.538 47.8432 120.662 44.2216 118.867C41.1132 117.244 38.3289 115.097 35.9999 112.524L44.6735 105.88C45.8358 107.902 47.4956 109.615 49.5054 110.866C51.416 112.019 53.6259 112.619 55.8761 112.598C57.0098 112.62 58.1378 112.436 59.2014 112.055C60.1047 111.725 60.934 111.229 61.6443 110.595C62.3018 110.018 62.8169 109.305 63.151 108.508C63.4741 107.711 63.6422 106.862 63.646 106.005C63.6722 105.045 63.3483 104.106 62.7312 103.355C62.0707 102.589 61.263 101.955 60.3529 101.488C59.2695 100.925 58.1347 100.461 56.9631 100.1C55.6717 99.6936 54.3588 99.2865 53.0029 98.8798C52.0779 98.5604 51.1498 98.2319 50.2236 97.9042C49.426 97.6218 48.629 97.3398 47.8374 97.0647C46.1568 96.4614 44.5844 95.6061 43.1777 94.5298C41.7925 93.4527 40.6467 92.1149 39.8094 90.597C38.8875 88.772 38.444 86.7547 38.518 84.7239C38.501 82.799 38.9313 80.895 39.7771 79.1533C40.6235 77.4272 41.8289 75.8894 43.3176 74.6364C44.8984 73.3107 46.7242 72.2877 48.6983 71.6216C50.8819 70.8936 53.1799 70.5405 55.4888 70.5784C57.3583 70.5583 59.2244 70.7402 61.0524 71.1209C62.6084 71.4576 64.1207 71.9615 65.5614 72.6231C66.9102 73.222 68.1847 73.9674 69.3601 74.845C70.4993 75.7361 71.5778 76.6978 72.5885 77.7242L64.7542 83.493C63.7741 81.9893 62.4053 80.7602 60.7837 79.9276C59.1622 79.095 57.3442 78.6879 55.5103 78.7465C53.5931 78.6191 51.6974 79.2006 50.2049 80.3739C49.6205 80.874 49.1552 81.4913 48.8412 82.1829C48.5272 82.8746 48.3719 83.6241 48.3862 84.3797C48.3566 85.2835 48.6534 86.169 49.2256 86.8833C49.8556 87.621 50.6266 88.2337 51.4963 88.688C52.5592 89.2468 53.6722 89.7111 54.8215 90.0754L58.814 91.4002C60.5358 91.9427 62.2756 92.5651 64.0332 93.2675C65.7407 93.9539 67.3414 94.8667 68.7898 95.9798C70.2202 97.1082 71.3991 98.5065 72.2549 100.09C73.1814 101.929 73.6354 103.959 73.5787 106.005C73.5716 107.983 73.16 109.94 72.3675 111.763C71.575 113.586 70.4175 115.238 68.9619 116.624C67.3655 118.111 65.4872 119.284 63.4306 120.077C61.0498 120.998 58.5039 121.452 55.9407 121.413Z" fill="white"/>
<path d="M98.0067 121.413C93.9414 121.538 89.9094 120.662 86.2877 118.867C83.146 117.186 80.331 114.987 77.9691 112.368L86.7934 105.88C87.9525 107.904 89.6129 109.618 91.6253 110.866C93.5308 112.021 95.7381 112.622 97.9854 112.598C99.1191 112.62 100.247 112.436 101.311 112.055C102.217 111.724 103.05 111.228 103.764 110.595C104.418 110.015 104.933 109.303 105.271 108.508C105.591 107.71 105.755 106.861 105.755 106.005C105.785 105.046 105.464 104.108 104.851 103.355C104.188 102.591 103.381 101.958 102.473 101.488C101.385 100.927 100.247 100.462 99.0723 100.1C97.7917 99.6936 96.4681 99.2865 95.1229 98.8798C93.3902 98.3375 91.6685 97.7428 89.9358 97.1168C88.2375 96.5 86.6502 95.6269 85.2331 94.5298C83.8472 93.4563 82.7041 92.1176 81.8756 90.597C80.9537 88.772 80.51 86.7547 80.5843 84.7239C80.5672 82.799 80.9974 80.895 81.8433 79.1533C82.6856 77.4277 83.8874 75.8898 85.3729 74.6364C86.9561 73.314 88.7813 72.2914 90.7537 71.6216C92.9336 70.8935 95.2279 70.5405 97.5333 70.5785C99.4028 70.5583 101.269 70.7403 103.097 71.1209C104.66 71.4585 106.179 71.9622 107.628 72.6231C108.973 73.2367 110.241 73.9999 111.405 74.8972C112.541 75.7911 113.62 76.7527 114.633 77.7764L106.788 83.5451C105.81 82.0416 104.444 80.8123 102.824 79.9796C101.204 79.1469 99.3873 78.7398 97.555 78.7987C95.6334 78.6622 93.7309 79.2445 92.2387 80.426C91.6542 80.9262 91.189 81.5434 90.875 82.2351C90.561 82.9267 90.4056 83.6763 90.4201 84.4318C90.3904 85.3357 90.6874 86.2212 91.2594 86.9355C91.8894 87.6731 92.6605 88.2859 93.53 88.7402C94.593 89.2989 95.7061 89.7633 96.8553 90.1276L100.88 91.4002C102.602 91.9427 104.338 92.5651 106.089 93.2675C107.797 93.9515 109.398 94.8645 110.845 95.9798C112.278 97.1051 113.458 98.5042 114.31 100.09C115.237 101.929 115.691 103.959 115.634 106.005C115.633 107.962 115.227 109.899 114.439 111.7C113.649 113.549 112.482 115.224 111.007 116.624C109.414 118.111 107.539 119.284 105.486 120.077C103.108 120.997 100.566 121.451 98.0067 121.413Z" fill="white"/>
<path d="M156 80.0302H132.648V91.5677H156V100.382H132.648V120.735H123.135V71.2153H156V80.0302Z" fill="white"/>
<defs>
<linearGradient id="paint0_linear_147_5626" x1="-6" y1="-21.5858" x2="191.69" y2="192.287" gradientUnits="userSpaceOnUse">
<stop offset="0.393658" stop-color="#9600FD"/>
<stop offset="0.619406" stop-color="#475ED8"/>
<stop offset="0.878792" stop-color="#01B2B6"/>
</linearGradient>
</defs>
</svg>
