<svg width="52" height="52" viewBox="0 0 52 52" fill="none" xmlns="http://www.w3.org/2000/svg">
<rect width="52" height="52" rx="26" fill="#FF5624"/>
<g clip-path="url(#clip0_11145_16371)">
<g clip-path="url(#clip1_11145_16371)">
<mask id="mask0_11145_16371" style="mask-type:luminance" maskUnits="userSpaceOnUse" x="9" y="10" width="33" height="32">
<path d="M41.9492 10H9.94922V42H41.9492V10Z" fill="white"/>
</mask>
<g mask="url(#mask0_11145_16371)">
<path d="M20.274 14.2539V15.694H34.7841V36.1337H19.5963C18.231 36.1337 17.1149 35.0225 17.1149 33.6522V15.694H18.6396V14.2539H15.6748V33.6522C15.6748 35.8148 17.4338 37.5737 19.5963 37.5737H36.2242V14.2539H20.274Z" fill="white"/>
</g>
<path fill-rule="evenodd" clip-rule="evenodd" d="M19.7679 22.125H23.3236H23.3254C23.3648 22.125 23.3974 22.1576 23.3974 22.197V25.7546C23.3974 25.794 23.3631 25.8266 23.3236 25.8266C21.3383 25.7888 19.7353 24.1858 19.6959 22.1987C19.6941 22.1576 19.7284 22.125 19.7679 22.125ZM30.2682 22.125H32.5827H32.5844C32.6342 22.125 32.6674 22.1775 32.6442 22.2217L28.2725 30.7251C28.2476 30.7743 28.1762 30.7743 28.1513 30.7251L26.0908 26.7128L24.0303 30.7218C24.0037 30.7726 23.9323 30.7726 23.9058 30.7218L22.7884 28.5492C22.7784 28.5296 22.7784 28.5082 22.7884 28.4886L26.0277 22.1889C26.0543 22.1381 26.1257 22.1381 26.1522 22.1889L28.1729 26.1192L30.2068 22.1627C30.2184 22.1398 30.2416 22.125 30.2682 22.125Z" fill="white"/>
</g>
</g>
<defs>
<clipPath id="clip0_11145_16371">
<rect width="32" height="32" fill="white" transform="translate(10 10)"/>
</clipPath>
<clipPath id="clip1_11145_16371">
<rect width="32" height="32" fill="white" transform="translate(9.94922 10)"/>
</clipPath>
</defs>
</svg>
