<svg width="60" height="60" viewBox="0 0 60 60" fill="none" xmlns="http://www.w3.org/2000/svg">
<rect width="60" height="60" rx="30" fill="#FF5624"/>
<path d="M29.1813 20.7461V30.992H29.3073H31.3142H39.5648V28.8735H31.3142V20.7461H29.1813Z" fill="white"/>
<path d="M18.9433 29.9302C18.9433 29.1887 18.3325 28.582 17.586 28.582C16.8394 28.582 16.2286 29.1887 16.2286 29.9302C16.2286 30.6717 16.8394 31.2783 17.586 31.2783C18.3325 31.2783 18.9433 30.6717 18.9433 29.9302Z" fill="white"/>
<path d="M42.8999 28.582C42.1534 28.582 41.5426 29.1887 41.5426 29.9302C41.5426 30.6717 42.1534 31.2783 42.8999 31.2783C43.6464 31.2783 44.2572 30.6717 44.2572 29.9302C44.2572 29.1887 43.6464 28.582 42.8999 28.582Z" fill="white"/>
<path d="M28.2602 18.5223C28.9292 18.4068 29.5884 18.349 30.238 18.349C30.8876 18.349 31.5566 18.4068 32.2255 18.5223C36.7822 19.3023 40.4082 22.6534 41.5329 27.0926H43.724C42.4636 21.103 37.3155 16.6638 31.1494 16.2594C30.8488 16.2401 30.5483 16.2305 30.2477 16.2305C29.9472 16.2305 29.6466 16.2401 29.3558 16.2594C23.18 16.6542 18.0318 21.103 16.7521 27.0926H18.9432C20.0775 22.6534 23.7035 19.3023 28.2602 18.5223Z" fill="white"/>
<path d="M32.2546 41.3417C31.5856 41.4572 30.907 41.515 30.2477 41.515C29.5884 41.515 28.9195 41.4572 28.2505 41.3417C23.6938 40.5521 20.0775 37.2106 18.9432 32.7713H16.7521C18.0318 38.7513 23.1703 43.2002 29.3267 43.6046C29.6272 43.6239 29.9375 43.6335 30.238 43.6335C30.5386 43.6335 30.8585 43.6239 31.1591 43.595C37.3155 43.1906 42.4539 38.7417 43.724 32.7617H41.5329C40.4082 37.1913 36.7919 40.5424 32.2449 41.332" fill="white"/>
</svg>
