<svg width="60" height="60" viewBox="0 0 60 60" fill="none" xmlns="http://www.w3.org/2000/svg">
<rect width="60" height="60" rx="30" fill="#FF5624"/>
<g clip-path="url(#clip0_11068_31369)">
<g clip-path="url(#clip1_11068_31369)">
<mask id="mask0_11068_31369" style="mask-type:luminance" maskUnits="userSpaceOnUse" x="9" y="10" width="41" height="40">
<path d="M49.9368 10H9.93677V50H49.9368V10Z" fill="white"/>
</mask>
<g mask="url(#mask0_11068_31369)">
<path d="M22.8425 15.3203V17.1204H40.9801V42.67H21.9954C20.2888 42.67 18.8936 41.2811 18.8936 39.5682V17.1204H20.7995V15.3203H17.0935V39.5682C17.0935 42.2714 19.2922 44.4701 21.9954 44.4701H42.7802V15.3203H22.8425Z" fill="white"/>
<path d="M37.9654 29.9336H34.8511V33.0479H37.9654V29.9336Z" fill="white"/>
<path d="M31.1139 29.9336H27.9996V33.0479H31.1139V29.9336Z" fill="white"/>
<path d="M24.8853 29.9336H21.771V33.0479H24.8853V29.9336Z" fill="white"/>
<path d="M37.9654 35.5391H34.8511V38.6534H37.9654V35.5391Z" fill="white"/>
<path d="M31.1139 35.5391H27.9996V38.6534H31.1139V35.5391Z" fill="white"/>
<path d="M24.8853 35.5391H21.771V38.6534H24.8853V35.5391Z" fill="white"/>
<path d="M37.8623 27.1243L37.8623 21.2133L23.767 21.2133L21.9669 21.2133L21.9669 27.1367L23.767 27.1367L26.8813 27.1305L37.8623 27.1305L37.8623 27.1243ZM36.0622 23.0134L36.0622 25.3242L23.767 25.3242L23.767 23.0134L36.0622 23.0134Z" fill="white"/>
</g>
</g>
</g>
<defs>
<clipPath id="clip0_11068_31369">
<rect width="40" height="40" fill="white" transform="translate(10 10)"/>
</clipPath>
<clipPath id="clip1_11068_31369">
<rect width="40" height="40" fill="white" transform="translate(9.93677 10)"/>
</clipPath>
</defs>
</svg>
