<svg width="52" height="52" viewBox="0 0 52 52" fill="none" xmlns="http://www.w3.org/2000/svg">
<rect width="52" height="52" rx="26" fill="#FF5624"/>
<g clip-path="url(#clip0_11145_16468)">
<g clip-path="url(#clip1_11145_16468)">
<mask id="mask0_11145_16468" style="mask-type:luminance" maskUnits="userSpaceOnUse" x="9" y="10" width="33" height="32">
<path d="M41.7803 10H9.78027V42H41.7803V10Z" fill="white"/>
</mask>
<g mask="url(#mask0_11145_16468)">
<path d="M37.4455 19.5118H32.0839V15.7148H14.5841V18.0717H16.0241V17.1549H30.6389V25.7354V32.4224H24.8887C24.5648 31.1667 23.4287 30.2399 22.0783 30.2399C20.728 30.2399 19.5919 31.1717 19.268 32.4224H18.5006C17.1353 32.4224 16.0192 31.3112 16.0192 29.9409V28.1571H14.5791V29.9409C14.5791 32.1035 16.3381 33.8625 18.5006 33.8625H19.268C19.5919 35.1181 20.728 36.045 22.0783 36.045C23.4287 36.045 24.5648 35.1132 24.8887 33.8625H32.6171C32.936 35.1181 34.0721 36.045 35.4274 36.045C36.7828 36.045 37.9139 35.1132 38.2378 33.8625H40.1562V24.8435L37.4405 19.5118H37.4455ZM36.5635 20.9518L38.2677 24.2953H32.0839V20.9518H36.5635ZM23.5483 33.1399C23.5483 33.3991 23.4785 33.6482 23.3589 33.8575C23.1098 34.301 22.6314 34.5999 22.0833 34.5999C21.5352 34.5999 21.0618 34.301 20.8077 33.8575C20.6881 33.6432 20.6183 33.3991 20.6183 33.1399C20.6183 32.8808 20.6881 32.6317 20.8077 32.4174C21.0618 31.974 21.5352 31.675 22.0833 31.675C22.6314 31.675 23.1048 31.974 23.3589 32.4174C23.4785 32.6317 23.5483 32.8759 23.5483 33.1399ZM36.8974 33.1399C36.8974 33.3991 36.8276 33.6482 36.708 33.8575C36.4539 34.301 35.9805 34.5999 35.4324 34.5999C34.8843 34.5999 34.4109 34.301 34.1568 33.8575C34.0372 33.6432 33.9675 33.3991 33.9675 33.1399C33.9675 32.8808 34.0372 32.6317 34.1568 32.4174C34.4109 31.974 34.8843 31.675 35.4324 31.675C35.9805 31.675 36.4539 31.974 36.708 32.4174C36.8276 32.6317 36.8974 32.8759 36.8974 33.1399ZM38.7211 32.4224H38.2428C37.9189 31.1667 36.7828 30.2399 35.4324 30.2399C34.0821 30.2399 32.946 31.1717 32.6221 32.4224H32.0839V25.7354H38.7211V32.4224Z" fill="white"/>
<path d="M17.0754 26.7174V25.2823V25.2773H11.3999V26.7174H17.0754Z" fill="white"/>
<path d="M17.0804 19.5117H11.3999V20.9518H17.0804V19.5117Z" fill="white"/>
<path d="M18.6897 23.8385V22.4034V22.3984H13.0093V23.8385H18.6897Z" fill="white"/>
</g>
</g>
</g>
<defs>
<clipPath id="clip0_11145_16468">
<rect width="32" height="32" fill="white" transform="translate(10 10)"/>
</clipPath>
<clipPath id="clip1_11145_16468">
<rect width="32" height="32" fill="white" transform="translate(9.78027 10)"/>
</clipPath>
</defs>
</svg>
