<svg width="678" height="145" viewBox="0 0 678 145" fill="none" xmlns="http://www.w3.org/2000/svg">
<g clip-path="url(#clip0_11117_14323)">
<path fill-rule="evenodd" clip-rule="evenodd" d="M265.775 121.046H244.331V121.023C243.929 121.023 243.594 120.688 243.594 120.285V0.738084C243.594 0.335493 243.929 0 244.331 0H265.775C266.178 0 266.513 0.335493 266.513 0.738084V120.308C266.513 120.71 266.178 121.046 265.775 121.046ZM548.522 29.3668V38.2462C553.799 31.2008 560.999 28.5169 568.512 28.5169C571.374 28.5169 574.773 28.8747 577.434 29.5457C577.769 29.6128 577.993 29.9259 577.993 30.2614V50.5699C577.993 51.062 577.523 51.4198 577.054 51.2856C575.064 50.7265 572.76 50.3686 570.457 50.3686C558.539 50.3686 548.88 58.577 548.88 76.5594V120.285C548.88 120.688 548.544 121.023 548.142 121.023H526.676C526.273 121.023 525.938 120.688 525.938 120.285V29.3668C525.938 28.9642 526.273 28.6287 526.676 28.6287H547.784C548.186 28.6287 548.522 28.9642 548.522 29.3668ZM583.225 29.7247L620.008 101.319L598.027 143.926C597.759 144.418 598.139 145.022 598.698 145.022H624.122C624.413 145.022 624.659 144.866 624.793 144.62L647.198 101.073C647.31 100.849 647.31 100.603 647.198 100.379L610.504 29.0537C610.37 28.8076 610.124 28.6511 609.834 28.6511H583.896C583.337 28.6511 582.979 29.2326 583.225 29.747V29.7247ZM112.025 28.6286H136.823C137.36 28.6286 137.718 29.1877 137.472 29.6798L90.649 122.007C90.3807 122.544 89.6204 122.544 89.3521 122.007L67.2601 78.4381L45.168 121.963C44.8774 122.499 44.0947 122.499 43.8264 121.963L31.8636 98.3664C31.7518 98.1651 31.7518 97.919 31.8636 97.7177L66.5669 29.3219C66.8576 28.7852 67.6402 28.7852 67.9085 29.3219L89.5533 71.9966L111.355 29.0312C111.489 28.7852 111.735 28.6286 112.025 28.6286ZM394.526 5.30075L351.997 47.8412C351.527 48.3109 351.862 49.1161 352.533 49.1161H372.434V120.285C372.434 120.688 372.769 121.023 373.172 121.023H395.063C395.465 121.023 395.8 120.688 395.8 120.285V49.1161H415.343C415.746 49.1161 416.081 48.7806 416.081 48.378V29.3891C416.081 28.9865 415.746 28.651 415.343 28.651H395.8V5.83754C395.8 5.16655 394.996 4.83106 394.526 5.30075ZM320.493 64.137C320.656 64.1919 320.819 64.2472 320.983 64.3027L320.961 64.258C334.31 68.7759 351.863 75.4187 351.863 94.2958C350.566 130.954 297.84 129.523 279.258 106.642C279.035 106.351 279.057 105.904 279.326 105.635L293.323 91.6342C293.614 91.3434 294.083 91.3434 294.374 91.6342C299.584 96.6889 309.11 101.721 316.6 102.169C322.57 102.527 328.093 99.7531 328.205 94.1616C327.544 88.0313 319.924 85.3908 311.075 82.3243C298.389 77.9285 283.178 72.6574 282.322 54.976C281.45 37.0383 297.996 25.9894 315.46 25.9894C330.799 26.0342 341.8 32.6322 347.771 39.3197C348.017 39.6104 347.994 40.0801 347.726 40.3485L333.84 54.2155C333.549 54.5287 333.058 54.5287 332.767 54.2155C329.077 50.3686 323.934 47.6846 318.322 46.9465C312.374 46.1637 305.979 48.9819 305.979 54.6181C306.195 59.3028 312.285 61.362 320.129 64.0136L320.493 64.137ZM466.66 26.2133C439.962 26.2133 418.34 47.8637 418.34 74.5466C418.34 101.229 439.984 122.88 466.66 122.88C493.336 122.88 514.981 101.229 514.981 74.5466C514.981 47.8637 493.336 26.2133 466.66 26.2133ZM466.66 99.4402C452.931 99.4402 441.796 88.3018 441.796 74.569C441.796 60.8361 452.931 49.6978 466.66 49.6978C480.39 49.6978 491.525 60.8361 491.525 74.569C491.525 88.3018 480.39 99.4402 466.66 99.4402ZM152.319 111.697C160.972 118.921 171.862 122.858 182.393 122.902L182.371 122.925C200.55 122.992 213.854 114.135 221.994 105.658C222.284 105.39 222.262 104.92 221.994 104.651L207.705 90.3818C207.459 90.1358 207.057 90.0911 206.766 90.3147C200.08 95.3024 193.506 99.4625 183.422 99.4625C172.085 99.4625 161.151 92.7079 158.848 82.2182H229.529C229.887 82.2182 230.177 81.9722 230.245 81.6143C231.228 76.0228 231.161 69.7826 229.909 63.7437C225.437 42.0038 206.073 26.2133 183.892 26.2133H183.042C160.927 26.2133 141.228 41.9814 136.197 63.7213C135.37 67.3223 134.967 70.968 134.967 74.5689C134.989 76.9398 135.168 79.3777 135.526 81.7932C137.248 93.4907 143.218 104.115 152.319 111.697ZM183.288 48.1321C193.283 48.1321 202.697 54.3052 206.319 63.3411H159.854C163.32 54.171 173.293 48.1321 183.288 48.1321Z" fill="#FF5624"/>
</g>
<defs>
<clipPath id="clip0_11117_14323">
<rect width="678" height="145" fill="white"/>
</clipPath>
</defs>
</svg>
