<svg width="150" height="32" viewBox="0 0 150 32" fill="none" xmlns="http://www.w3.org/2000/svg">
<g clip-path="url(#clip0_11084_8090)">
<g clip-path="url(#clip1_11084_8090)">
<path fill-rule="evenodd" clip-rule="evenodd" d="M53.9355 26.7136H58.6691C58.758 26.7136 58.832 26.6395 58.832 26.5507V0.162888C58.832 0.0740398 58.758 0 58.6691 0H53.9355C53.8467 0 53.7726 0.0740398 53.7726 0.162888V26.5457C53.7726 26.6346 53.8467 26.7086 53.9355 26.7086V26.7136ZM121.085 8.44053V6.48094C121.085 6.3921 121.011 6.31806 120.922 6.31806H116.262C116.173 6.31806 116.099 6.3921 116.099 6.48094V26.5457C116.099 26.6346 116.173 26.7086 116.262 26.7086H121.001C121.09 26.7086 121.164 26.6346 121.164 26.5457V16.8959C121.164 12.9273 123.296 11.1158 125.927 11.1158C126.435 11.1158 126.944 11.1948 127.383 11.3182C127.487 11.3478 127.59 11.2689 127.59 11.1603V6.67838C127.59 6.60434 127.541 6.53524 127.467 6.52043C126.88 6.37235 126.129 6.29338 125.497 6.29338C123.839 6.29338 122.25 6.88569 121.085 8.44053ZM136.865 22.36L128.745 6.55993V6.56486C128.691 6.45133 128.77 6.323 128.893 6.323H134.619C134.683 6.323 134.738 6.35755 134.767 6.41185L142.867 22.1527C142.892 22.2021 142.892 22.2564 142.867 22.3057L137.921 31.9161C137.892 31.9704 137.837 32.0049 137.773 32.0049H132.161C132.038 32.0049 131.954 31.8717 132.013 31.7631L136.865 22.36ZM30.2033 6.31803H24.7293C24.6652 6.31803 24.6109 6.35259 24.5812 6.40688L19.7687 15.8889L14.9906 6.47105C14.9314 6.35259 14.7586 6.35259 14.6945 6.47105L7.03381 21.5653C7.00913 21.6097 7.00913 21.664 7.03381 21.7084L9.67456 26.9159C9.73379 27.0344 9.90655 27.0344 9.97072 26.9159L14.8475 17.3105L19.7242 26.9258C19.7835 27.0442 19.9513 27.0442 20.0105 26.9258L30.3465 6.55002C30.4008 6.44143 30.3218 6.31803 30.2033 6.31803ZM77.7023 10.5581L87.0905 1.16982C87.1942 1.06616 87.3719 1.1402 87.3719 1.28828V6.32299H91.6859C91.7748 6.32299 91.8488 6.39703 91.8488 6.48588V10.6765C91.8488 10.7654 91.7748 10.8394 91.6859 10.8394H87.3719V26.5457C87.3719 26.6346 87.2979 26.7086 87.209 26.7086H82.3767C82.2878 26.7086 82.2138 26.6346 82.2138 26.5457V10.8394H77.8208C77.6727 10.8394 77.5986 10.6617 77.7023 10.5581ZM70.8561 14.1909L70.6675 14.1271C68.9362 13.5419 67.5917 13.0875 67.5441 12.0537C67.5441 10.8098 68.9557 10.1879 70.2687 10.3606C71.5077 10.5235 72.6429 11.1158 73.4574 11.9648C73.5215 12.0339 73.6301 12.0339 73.6943 11.9648L76.7595 8.9045C76.8188 8.84527 76.8237 8.74161 76.7694 8.67744C75.4515 7.20158 73.023 5.74547 69.6369 5.7356C65.7819 5.7356 62.1293 8.17397 62.3218 12.1326C62.5108 16.0347 65.8686 17.198 68.6689 18.1681C70.6223 18.8449 72.3044 19.4276 72.4504 20.7805C72.4257 22.0145 71.2066 22.6265 69.8886 22.5476C68.2351 22.4488 66.1324 21.3382 64.9823 20.2227C64.9181 20.1585 64.8145 20.1585 64.7503 20.2227L61.6604 23.3126C61.6011 23.3719 61.5962 23.4706 61.6456 23.5348C65.7474 28.5843 77.3864 28.9002 77.6727 20.8101C77.6727 16.6441 73.798 15.1781 70.8512 14.1811L70.8561 14.1909ZM92.3473 16.4517C92.3473 10.563 97.1204 5.78499 103.014 5.78499C108.903 5.78499 113.681 10.563 113.681 16.4517C113.681 22.3403 108.903 27.1183 103.014 27.1183C97.1254 27.1183 92.3473 22.3403 92.3473 16.4517ZM97.5252 16.4566C97.5252 19.4873 99.9833 21.9454 103.014 21.9454C106.045 21.9454 108.503 19.4873 108.503 16.4566C108.503 13.4259 106.045 10.9678 103.014 10.9678C99.9833 10.9678 97.5252 13.4259 97.5252 16.4566ZM40.2628 27.1233C37.938 27.1134 35.5342 26.2447 33.6239 24.6503C31.615 22.977 30.2971 20.6324 29.917 18.0509C29.838 17.5178 29.7986 16.9798 29.7936 16.4566C29.7936 15.6619 29.8825 14.8573 30.0651 14.0626C31.1757 9.26486 35.5243 5.78499 40.406 5.78499H40.5936C45.4901 5.78499 49.7646 9.2698 50.7518 14.0676C51.0282 15.4003 51.043 16.7774 50.8259 18.0114C50.8111 18.0904 50.7469 18.1447 50.6679 18.1447H35.0653C35.5737 20.4597 37.9874 21.9503 40.4899 21.9503C42.716 21.9503 44.1672 21.0323 45.6431 19.9315C45.7072 19.8822 45.7961 19.892 45.8504 19.9463L49.0045 23.0955C49.0637 23.1547 49.0686 23.2584 49.0045 23.3176C47.2078 25.1884 44.2709 27.143 40.2579 27.1282L40.2628 27.1233ZM45.5444 13.9787C44.7447 11.9846 42.6667 10.6223 40.4603 10.6223C38.2539 10.6223 36.0525 11.955 35.2874 13.9787H45.5444ZM8.31714 6.31803H0.167824C0.0740398 6.31803 0 6.39207 0 6.48586C0.0888478 11.0368 3.76122 14.7092 8.3122 14.7981C8.40598 14.7981 8.48002 14.724 8.48002 14.6302V6.48092C8.48002 6.39207 8.40598 6.31803 8.31714 6.31803ZM141.07 6.48092V14.6302C141.07 14.724 141.145 14.7981 141.238 14.7981C145.789 14.7092 149.462 11.0368 149.551 6.48586C149.551 6.39207 149.476 6.31803 149.383 6.31803H141.233C141.145 6.31803 141.07 6.39207 141.07 6.48092Z" fill="white"/>
</g>
</g>
<defs>
<clipPath id="clip0_11084_8090">
<rect width="149.667" height="32" fill="white"/>
</clipPath>
<clipPath id="clip1_11084_8090">
<rect width="149.551" height="32" fill="white"/>
</clipPath>
</defs>
</svg>
