<svg width="150" height="32" viewBox="0 0 150 32" fill="none" xmlns="http://www.w3.org/2000/svg">
<g clip-path="url(#clip0_11087_14399)">
<path fill-rule="evenodd" clip-rule="evenodd" d="M58.6691 26.7136H53.9355V26.7086C53.8467 26.7086 53.7726 26.6346 53.7726 26.5457V0.162888C53.7726 0.0740398 53.8467 0 53.9355 0H58.6691C58.758 0 58.832 0.0740398 58.832 0.162888V26.5507C58.832 26.6395 58.758 26.7136 58.6691 26.7136ZM121.085 6.48094V8.44053C122.25 6.88569 123.839 6.29338 125.497 6.29338C126.129 6.29338 126.88 6.37235 127.467 6.52043C127.541 6.53524 127.59 6.60434 127.59 6.67838V11.1603C127.59 11.2689 127.487 11.3478 127.383 11.3182C126.944 11.1948 126.435 11.1158 125.927 11.1158C123.296 11.1158 121.164 12.9273 121.164 16.8959V26.5457C121.164 26.6346 121.09 26.7086 121.001 26.7086H116.262C116.173 26.7086 116.099 26.6346 116.099 26.5457V6.48094C116.099 6.3921 116.173 6.31806 116.262 6.31806H120.922C121.011 6.31806 121.085 6.3921 121.085 6.48094ZM128.745 6.55993L136.865 22.36L132.013 31.7631C131.954 31.8717 132.038 32.0049 132.161 32.0049H137.773C137.837 32.0049 137.892 31.9704 137.921 31.9161L142.867 22.3057C142.892 22.2564 142.892 22.2021 142.867 22.1527L134.767 6.41185C134.738 6.35755 134.683 6.323 134.619 6.323H128.893C128.77 6.323 128.691 6.45133 128.745 6.56486V6.55993ZM24.7293 6.31803H30.2033C30.3218 6.31803 30.4008 6.44143 30.3465 6.55002L20.0105 26.9258C19.9513 27.0442 19.7835 27.0442 19.7242 26.9258L14.8475 17.3105L9.97072 26.9159C9.90655 27.0344 9.73379 27.0344 9.67456 26.9159L7.03381 21.7084C7.00913 21.664 7.00913 21.6097 7.03381 21.5653L14.6945 6.47105C14.7586 6.35259 14.9314 6.35259 14.9906 6.47105L19.7687 15.8889L24.5812 6.40688C24.6109 6.35259 24.6651 6.31803 24.7293 6.31803ZM87.0905 1.16982L77.7023 10.5581C77.5986 10.6617 77.6727 10.8394 77.8208 10.8394H82.2138V26.5457C82.2138 26.6346 82.2878 26.7086 82.3767 26.7086H87.209C87.2979 26.7086 87.3719 26.6346 87.3719 26.5457V10.8394H91.6859C91.7748 10.8394 91.8488 10.7654 91.8488 10.6765V6.48588C91.8488 6.39703 91.7748 6.32299 91.6859 6.32299H87.3719V1.28828C87.3719 1.1402 87.1942 1.06616 87.0905 1.16982ZM70.6675 14.1271L70.8561 14.1909L70.8512 14.1811C73.798 15.1781 77.6727 16.6441 77.6727 20.8101C77.3864 28.9002 65.7474 28.5843 61.6455 23.5348C61.5962 23.4706 61.6011 23.3719 61.6604 23.3126L64.7503 20.2227C64.8145 20.1585 64.9181 20.1585 64.9823 20.2227C66.1324 21.3382 68.2351 22.4488 69.8886 22.5476C71.2066 22.6265 72.4257 22.0145 72.4504 20.7805C72.3044 19.4276 70.6223 18.8449 68.6689 18.1681C65.8686 17.198 62.5108 16.0347 62.3218 12.1326C62.1293 8.17397 65.7819 5.7356 69.6369 5.7356C73.023 5.74547 75.4515 7.20158 76.7694 8.67744C76.8237 8.74161 76.8188 8.84527 76.7595 8.9045L73.6943 11.9648C73.6301 12.0339 73.5215 12.0339 73.4574 11.9648C72.6429 11.1158 71.5077 10.5235 70.2687 10.3606C68.9557 10.1879 67.5441 10.8098 67.5441 12.0537C67.5917 13.0875 68.9362 13.5419 70.6675 14.1271ZM103.014 5.78499C97.1204 5.78499 92.3473 10.563 92.3473 16.4517C92.3473 22.3403 97.1254 27.1183 103.014 27.1183C108.903 27.1183 113.681 22.3403 113.681 16.4517C113.681 10.563 108.903 5.78499 103.014 5.78499ZM103.014 21.9454C99.9833 21.9454 97.5252 19.4873 97.5252 16.4566C97.5252 13.4259 99.9833 10.9678 103.014 10.9678C106.045 10.9678 108.503 13.4259 108.503 16.4566C108.503 19.4873 106.045 21.9454 103.014 21.9454ZM33.6239 24.6503C35.5342 26.2447 37.938 27.1134 40.2628 27.1233L40.2579 27.1282C44.2709 27.143 47.2078 25.1884 49.0045 23.3176C49.0686 23.2584 49.0637 23.1547 49.0045 23.0955L45.8504 19.9463C45.7961 19.892 45.7072 19.8822 45.6431 19.9315C44.1672 21.0323 42.716 21.9503 40.4899 21.9503C37.9874 21.9503 35.5737 20.4597 35.0653 18.1447H50.6679C50.7469 18.1447 50.8111 18.0904 50.8259 18.0114C51.043 16.7774 51.0282 15.4003 50.7518 14.0676C49.7646 9.2698 45.4901 5.78499 40.5936 5.78499H40.406C35.5243 5.78499 31.1757 9.26486 30.0651 14.0626C29.8825 14.8573 29.7936 15.6619 29.7936 16.4566C29.7986 16.9798 29.838 17.5178 29.917 18.0509C30.2971 20.6324 31.615 22.977 33.6239 24.6503ZM40.4603 10.6223C42.6667 10.6223 44.7447 11.9846 45.5443 13.9787H35.2874C36.0524 11.955 38.2539 10.6223 40.4603 10.6223Z" fill="#FF5624"/>
<path fill-rule="evenodd" clip-rule="evenodd" d="M0.167824 6.31641H8.31714C8.40598 6.31641 8.48002 6.39045 8.48002 6.47929V14.6286C8.48002 14.7224 8.40598 14.7964 8.3122 14.7964C3.76122 14.7076 0.0888478 11.0352 0 6.48423C0 6.39045 0.0740398 6.31641 0.167824 6.31641ZM141.07 14.6286V6.47929C141.07 6.39045 141.145 6.31641 141.233 6.31641H149.383C149.476 6.31641 149.551 6.39045 149.551 6.48423C149.462 11.0352 145.789 14.7076 141.238 14.7964C141.145 14.7964 141.07 14.7224 141.07 14.6286Z" fill="#F0592B"/>
</g>
<defs>
<clipPath id="clip0_11087_14399">
<rect width="149.667" height="32" fill="white"/>
</clipPath>
</defs>
</svg>
